<svg xmlns="http://www.w3.org/2000/svg" width="32" height="32" viewBox="0 0 32 32"><g fill="#fff" stroke="#fff" stroke-width="1.6" stroke-linejoin="round"><rect x="8.0" y="3.0" width="1.7" height="1.7" rx="0.35"/><rect x="8.0" y="5.3" width="1.7" height="1.7" rx="0.35"/><rect x="10.3" y="3.0" width="1.7" height="1.7" rx="0.35"/><rect x="10.3" y="5.3" width="1.7" height="1.7" rx="0.35"/><rect x="13" y="3" width="4" height="4" rx="0.9"/><rect x="18" y="3" width="4" height="4" rx="0.9"/><rect x="23.0" y="3.0" width="1.7" height="1.7" rx="0.35"/><rect x="23.0" y="5.3" width="1.7" height="1.7" rx="0.35"/><rect x="25.3" y="3.0" width="1.7" height="1.7" rx="0.35"/><rect x="25.3" y="5.3" width="1.7" height="1.7" rx="0.35"/><rect x="3.0" y="8.0" width="1.7" height="1.7" rx="0.35"/><rect x="3.0" y="10.3" width="1.7" height="1.7" rx="0.35"/><rect x="5.3" y="8.0" width="1.7" height="1.7" rx="0.35"/><rect x="5.3" y="10.3" width="1.7" height="1.7" rx="0.35"/><rect x="8" y="8" width="4" height="4" rx="0.9"/><rect x="23" y="8" width="4" height="4" rx="0.9"/><rect x="3" y="13" width="4" height="4" rx="0.9"/><rect x="8" y="13" width="4" height="4" rx="0.9"/><rect x="3" y="18" width="4" height="4" rx="0.9"/><rect x="8" y="18" width="4" height="4" rx="0.9"/><rect x="3.0" y="23.0" width="1.7" height="1.7" rx="0.35"/><rect x="3.0" y="25.3" width="1.7" height="1.7" rx="0.35"/><rect x="5.3" y="23.0" width="1.7" height="1.7" rx="0.35"/><rect x="5.3" y="25.3" width="1.7" height="1.7" rx="0.35"/><rect x="8" y="23" width="4" height="4" rx="0.9"/><rect x="23" y="23" width="4" height="4" rx="0.9"/><rect x="8.0" y="28.0" width="1.7" height="1.7" rx="0.35"/><rect x="8.0" y="30.3" width="1.7" height="1.7" rx="0.35"/><rect x="10.3" y="28.0" width="1.7" height="1.7" rx="0.35"/><rect x="10.3" y="30.3" width="1.7" height="1.7" rx="0.35"/><rect x="13" y="28" width="4" height="4" rx="0.9"/><rect x="18" y="28" width="4" height="4" rx="0.9"/><rect x="23.0" y="28.0" width="1.7" height="1.7" rx="0.35"/><rect x="23.0" y="30.3" width="1.7" height="1.7" rx="0.35"/><rect x="25.3" y="28.0" width="1.7" height="1.7" rx="0.35"/><rect x="25.3" y="30.3" width="1.7" height="1.7" rx="0.35"/></g><g fill="#111"><rect x="8.0" y="3.0" width="1.7" height="1.7" rx="0.35"/><rect x="8.0" y="5.3" width="1.7" height="1.7" rx="0.35"/><rect x="10.3" y="3.0" width="1.7" height="1.7" rx="0.35"/><rect x="10.3" y="5.3" width="1.7" height="1.7" rx="0.35"/><rect x="13" y="3" width="4" height="4" rx="0.9"/><rect x="18" y="3" width="4" height="4" rx="0.9"/><rect x="23.0" y="3.0" width="1.7" height="1.7" rx="0.35"/><rect x="23.0" y="5.3" width="1.7" height="1.7" rx="0.35"/><rect x="25.3" y="3.0" width="1.7" height="1.7" rx="0.35"/><rect x="25.3" y="5.3" width="1.7" height="1.7" rx="0.35"/><rect x="3.0" y="8.0" width="1.7" height="1.7" rx="0.35"/><rect x="3.0" y="10.3" width="1.7" height="1.7" rx="0.35"/><rect x="5.3" y="8.0" width="1.7" height="1.7" rx="0.35"/><rect x="5.3" y="10.3" width="1.7" height="1.7" rx="0.35"/><rect x="8" y="8" width="4" height="4" rx="0.9"/><rect x="23" y="8" width="4" height="4" rx="0.9"/><rect x="3" y="13" width="4" height="4" rx="0.9"/><rect x="8" y="13" width="4" height="4" rx="0.9"/><rect x="3" y="18" width="4" height="4" rx="0.9"/><rect x="8" y="18" width="4" height="4" rx="0.9"/><rect x="3.0" y="23.0" width="1.7" height="1.7" rx="0.35"/><rect x="3.0" y="25.3" width="1.7" height="1.7" rx="0.35"/><rect x="5.3" y="23.0" width="1.7" height="1.7" rx="0.35"/><rect x="5.3" y="25.3" width="1.7" height="1.7" rx="0.35"/><rect x="8" y="23" width="4" height="4" rx="0.9"/><rect x="23" y="23" width="4" height="4" rx="0.9"/><rect x="8.0" y="28.0" width="1.7" height="1.7" rx="0.35"/><rect x="8.0" y="30.3" width="1.7" height="1.7" rx="0.35"/><rect x="10.3" y="28.0" width="1.7" height="1.7" rx="0.35"/><rect x="10.3" y="30.3" width="1.7" height="1.7" rx="0.35"/><rect x="13" y="28" width="4" height="4" rx="0.9"/><rect x="18" y="28" width="4" height="4" rx="0.9"/><rect x="23.0" y="28.0" width="1.7" height="1.7" rx="0.35"/><rect x="23.0" y="30.3" width="1.7" height="1.7" rx="0.35"/><rect x="25.3" y="28.0" width="1.7" height="1.7" rx="0.35"/><rect x="25.3" y="30.3" width="1.7" height="1.7" rx="0.35"/></g></svg>